<?xml version="1.0" encoding="UTF-8" standalone="no"?>
<!-- Created with Inkscape (http://www.inkscape.org/) -->

<svg
   version="1.1"
   id="svg2"
   width="1860.1067"
   height="381.95334"
   viewBox="0 0 1860.1067 381.95334"
   sodipodi:docname="AnTech Logo.svg"
   inkscape:version="1.2.2 (732a01da63, 2022-12-09)"
   xmlns:inkscape="http://www.inkscape.org/namespaces/inkscape"
   xmlns:sodipodi="http://sodipodi.sourceforge.net/DTD/sodipodi-0.dtd"
   xmlns="http://www.w3.org/2000/svg"
   xmlns:svg="http://www.w3.org/2000/svg">
  <defs
     id="defs6">
    <clipPath
       clipPathUnits="userSpaceOnUse"
       id="clipPath18">
      <path
         d="M 0,286.465 H 1395.08 V 0 H 0 Z"
         id="path16" />
    </clipPath>
  </defs>
  <sodipodi:namedview
     id="namedview4"
     pagecolor="#505050"
     bordercolor="#eeeeee"
     borderopacity="1"
     inkscape:showpageshadow="0"
     inkscape:pageopacity="0"
     inkscape:pagecheckerboard="0"
     inkscape:deskcolor="#505050"
     showgrid="false"
     inkscape:zoom="0.78113799"
     inkscape:cx="820.59765"
     inkscape:cy="191.38744"
     inkscape:window-width="1920"
     inkscape:window-height="1013"
     inkscape:window-x="-9"
     inkscape:window-y="349"
     inkscape:window-maximized="1"
     inkscape:current-layer="g14">
    <inkscape:page
       x="0"
       y="0"
       id="page8"
       width="1860.1067"
       height="381.95334" />
  </sodipodi:namedview>
  <g
     id="g10"
     inkscape:groupmode="layer"
     inkscape:label="Page 1"
     transform="matrix(1.3333333,0,0,-1.3333333,0,381.95333)">
    <g
       id="g12">
      <g
         id="g14"
         clip-path="url(#clipPath18)">
        <path
           d="m 1137.459,15.9923 v 254.397 h 81.329 v -71.569 c 0,-4.555 0,-8.458 0.325,-8.458 0,0 2.278,3.253 4.88,7.156 7.157,11.387 16.592,15.616 34.809,15.616 h 44.568 c 4.555,0 12.037,-0.976 16.592,-2.277 l 13.663,-3.254 c 4.23,-1.301 11.061,-4.229 14.965,-6.831 l 10.085,-6.832 c 3.578,-2.602 9.108,-7.482 11.711,-11.386 l 2.277,-3.253 c 5.53,-7.808 7.483,-14.64 7.483,-26.676 V 15.9923 h -81.33 v 135.982 c 0,23.748 -27.977,39.038 -54.978,29.93 l -3.579,-1.302 c -4.554,-1.627 -10.41,-5.53 -13.338,-8.783 l -2.928,-3.579 c -2.928,-3.579 -5.205,-10.085 -5.205,-14.639 V 15.9923 Z m -221.875,55.954 -0.65,81.33 c 0,3.578 0.975,9.434 1.626,12.687 l 0.975,3.578 c 0.977,3.254 3.254,8.459 5.531,11.387 l 2.277,2.927 c 1.952,2.928 6.181,6.832 9.434,9.109 l 6.181,4.88 c 2.929,1.952 8.134,4.879 11.387,6.506 l 10.085,3.904 c 3.253,1.301 9.108,2.928 13.012,3.253 l 1.952,0.651 c 3.904,0.325 10.085,0.976 13.664,0.976 h 54.652 c 3.579,0 9.435,-0.651 12.687,-1.302 l 14.965,-2.927 c 3.578,-0.976 8.784,-2.603 12.037,-4.229 l 3.579,-1.953 c 7.482,-3.578 14.638,-10.084 19.193,-16.916 l 0.325,-0.65 c 1.952,-2.928 4.555,-8.458 5.53,-12.037 l 0.652,-1.301 c 2.277,-7.808 2.602,-8.784 2.602,-12.363 0,-1.626 -2.927,-2.927 -6.507,-2.927 h -27.326 c -3.579,0 -6.832,0.976 -7.157,2.277 -0.325,1.301 -2.277,4.88 -3.903,8.133 l -0.652,1.301 c -4.228,7.157 -11.711,12.688 -20.82,14.639 -3.578,0.976 -9.759,1.627 -13.338,1.627 h -1.626 c -3.579,0 -9.109,-0.976 -12.687,-1.952 l -4.88,-1.626 c -3.253,-0.977 -8.458,-3.579 -11.061,-5.856 l -0.976,-0.651 c -7.482,-6.506 -10.084,-12.036 -10.084,-22.447 v -74.171 c 0,-10.085 3.578,-17.568 10.409,-22.773 l 3.904,-2.602 c 9.76,-7.158 24.724,-9.76 38.062,-6.181 l 6.832,1.626 c 3.578,0.976 8.133,3.904 10.41,6.507 l 4.88,5.205 c 2.277,2.602 4.554,6.831 5.205,9.108 0.325,1.952 3.903,3.904 7.482,3.904 h 27.652 c 3.579,0 6.506,0 6.506,-0.326 0,-0.325 -0.65,-3.253 -1.301,-6.506 l -1.626,-6.832 c -0.652,-3.578 -2.928,-8.783 -4.88,-11.711 l -4.88,-7.157 c -1.952,-2.927 -5.855,-7.157 -8.783,-9.108 l -1.952,-1.302 c -2.928,-2.277 -8.133,-4.88 -11.386,-5.855 l -8.459,-2.928 c -3.578,-1.302 -9.434,-2.277 -13.013,-2.603 l -70.594,-1.627 c -3.578,-0.325 -9.433,0.326 -12.686,0.977 l -13.013,2.928 c -3.579,0.65 -8.784,2.602 -12.037,4.553 l -16.916,10.411 c -3.254,1.627 -7.482,5.531 -9.434,8.459 l -3.905,5.205 c -4.879,6.18 -7.156,13.988 -7.156,22.771 m -182.512,57.256 h 80.029 v 27.977 c 0,2.928 0,3.904 -1.627,7.482 v 0.326 c -0.651,1.627 -1.952,3.578 -2.928,4.88 l -1.626,1.626 c -0.977,1.302 -2.603,2.928 -3.904,3.904 l -2.928,1.952 c -0.976,0.976 -2.928,1.952 -4.23,2.602 l -3.578,1.302 c -1.301,0.651 -3.253,1.301 -4.554,1.626 l -5.531,1.301 c -0.975,0 -3.253,0.326 -4.88,0.326 h -8.783 c -4.554,0 -9.434,-0.976 -13.663,-2.928 l -7.482,-3.904 c -1.302,-0.325 -3.253,-1.952 -4.23,-2.928 l -5.855,-5.53 c -0.976,-0.976 -2.278,-2.928 -2.603,-4.229 l -0.65,-1.627 c -0.325,-1.301 -0.977,-3.578 -0.977,-4.879 z M 894.43,100.5743 H 733.072 v -24.724 c 0,-13.989 10.736,-25.375 27.002,-29.278 h 0.976 c 4.555,-0.976 11.386,-1.952 15.94,-1.952 h 34.809 c 4.555,0 11.387,0.976 15.29,1.952 l 7.157,1.626 c 9.76,2.603 14.965,7.808 17.567,16.917 1.301,4.229 5.531,7.482 10.084,7.482 h 24.725 c 4.555,0 7.808,-0.326 7.808,-0.976 0,-0.65 -0.976,-4.229 -2.278,-8.133 l -2.602,-7.157 c -1.301,-4.229 -4.555,-10.084 -7.157,-13.663 l -1.952,-2.278 c -2.602,-3.578 -8.133,-7.807 -11.711,-9.433 l -20.17,-9.76 c -3.904,-1.627 -10.411,-3.253 -14.964,-3.253 l -105.729,-1.302 c -4.554,0 -11.386,0.651 -15.615,1.627 l -11.061,2.278 c -4.228,0.975 -10.41,3.578 -13.988,5.855 l -13.663,8.783 c -3.579,2.278 -8.458,6.832 -11.061,10.411 l -3.253,4.229 c -5.531,7.482 -7.482,13.338 -7.482,24.073 v 81.98 c 0,4.229 1.301,11.061 2.927,14.965 l 1.302,3.253 c 3.903,9.109 10.735,16.916 19.194,21.146 l 24.072,12.361 c 7.158,3.579 17.568,5.531 29.93,5.531 h 89.137 c 4.554,0 11.385,-0.976 15.615,-1.952 l 13.338,-3.253 c 4.229,-1.302 10.735,-3.904 14.313,-6.181 l 11.062,-7.483 c 3.578,-2.277 8.783,-6.831 11.386,-10.085 l 2.602,-3.903 c 5.205,-6.832 7.808,-15.941 7.808,-27.001 z m -426.822,172.418 h 242.036 8.458 c 0,-0.325 0.325,-4.229 0.325,-8.784 v -5.205 c 0,-9.109 -0.651,-18.543 -0.976,-18.868 0,-0.325 -3.904,-0.325 -8.459,-0.325 h -77.099 v -29.929 c 0,-4.555 0,-8.459 0.325,-8.784 0,0 0.325,-3.904 0.325,-8.458 V 24.7753 c 0,-4.554 -0.325,-8.458 -0.325,-8.458 0,-0.325 -3.904,-0.325 -8.458,-0.325 h -63.762 c -4.88,0 -8.784,0 -8.784,0.325 0,0 0,3.904 -0.325,8.458 l -1.627,215.035 h -82.305 -8.783 c 0,0.325 0,4.229 0.325,8.783 l 0.325,15.941 c 0.325,8.458 0.651,8.458 8.784,8.458 m -185.116,-257 v 197.142 h 73.521 c 6.832,0 7.808,-0.976 7.808,-7.808 v -8.458 c 0,-4.229 0,-7.808 0.325,-7.808 0.326,0 1.952,3.253 4.23,7.157 6.18,11.712 16.916,16.917 34.158,16.917 h 47.171 c 4.229,0 11.06,-0.976 15.289,-1.952 l 12.688,-3.253 c 4.229,-0.976 10.735,-3.579 14.314,-5.531 l 2.602,-1.626 c 3.579,-1.952 9.434,-5.856 12.688,-8.784 h 0.325 c 3.253,-2.928 8.133,-8.133 10.41,-11.711 l 0.325,-0.326 c 2.278,-3.578 4.88,-10.41 5.856,-14.964 0.976,-4.555 1.627,-12.037 1.627,-16.266 V 15.9923 H 444.5 v 134.03 c 0,10.736 -4.555,19.845 -12.037,25.375 l -2.277,1.302 c -11.387,7.807 -27.002,9.759 -40.34,5.205 l -4.229,-1.302 c -14.314,-4.88 -21.796,-14.964 -21.796,-29.604 V 15.9923 Z m -186.09,141.187 h 80.028 v 55.955 c 0,4.229 -1.627,9.108 -4.229,12.037 l -2.603,2.927 c -0.976,1.302 -2.928,3.253 -4.555,4.229 l -0.65,0.326 c -1.301,0.976 -3.579,2.277 -5.205,3.253 l -4.555,1.952 c -1.626,0.651 -4.229,1.301 -5.855,1.626 l -8.459,1.301 c -3.578,0.326 -3.903,0.326 -8.132,0 l -7.157,-1.301 c -1.627,0 -4.555,-0.975 -6.181,-1.626 l -7.157,-3.253 c -1.627,-0.651 -3.904,-2.278 -5.205,-3.579 l -4.555,-4.229 c -1.301,-0.976 -2.928,-3.253 -3.578,-4.88 l -0.651,-1.951 c -0.651,-1.627 -1.301,-4.23 -1.301,-6.182 z M 15.073,15.9923 v 195.19 c 0,4.554 1.626,12.037 3.253,16.266 l 1.301,3.253 c 1.952,4.554 6.506,10.41 10.085,13.338 l 13.664,11.386 c 3.578,2.928 10.409,6.506 14.639,8.133 l 6.831,2.277 c 4.554,1.302 12.037,2.603 16.592,2.603 l 96.618,1.301 c 4.555,0 12.362,-0.651 16.917,-1.627 l 12.362,-2.602 c 4.554,-0.976 11.386,-3.904 15.29,-6.507 l 13.337,-8.458 c 13.013,-8.458 21.797,-25.049 21.797,-40.664 V 15.9923 H 176.43 v 112.56 H 96.402 v -112.56 z"
           style="fill:#eb222f;fill-opacity:1;fill-rule:nonzero;stroke:none"
           id="path22" />
      </g>
    </g>
  </g>
</svg>
